# xmcd
#
# Track frame offsets:
#	150
#	13493
#	29565
#	45151
#	60494
#	82911
#	97472
#	109549
#	129915
#	148686
#
# Disc length: 2246 seconds
#
# Revision: 1
# Processed by: cddbd v1.5.2PL0 Copyright (c) Steve Scherf et al.
# Submitted via: audiograbber 1.82.02
#
DISCID=8108c40a
DTITLE=John Fahy - John Fahy at Sioux City
DYEAR=2009
DGENRE=Country
TTITLE0=Rhinestone cowboy
TTITLE1=The gambler
TTITLE2=Achey breaky heart
TTITLE3=What she's doing now
TTITLE4=The blanket on the ground
TTITLE5=Always on my mind
TTITLE6=Baton rouge
TTITLE7=I swear
TTITLE8=Country roads
TTITLE9=Dance the night away
EXTD=
EXTT0=
EXTT1=
EXTT2=
EXTT3=
EXTT4=
EXTT5=
EXTT6=
EXTT7=
EXTT8=
EXTT9=
PLAYORDER=
